# xmcd CD database file
#
# Track frame offsets:
#	150
#	13569
#	28309
#	41803
#	54836
#	70050
#	80998
#	94564
#	107696
#	120072
#	132404
#	147402
#	160058
#	173405
#	186781
#	201434
#	221642
#	234821
#	250085
#	264036
#	278663
#
# Disc length: 4111 seconds
#
# Revision: 0
# Processed by: cddbd v1.4PL0 Copyright (c) Steve Scherf et al.
# Submitted via: CDex 1.51
#
DISCID=18100d15
DTITLE=Stan Getz - Lullaby of Birdland
DYEAR=2003
DGENRE=Jazz
TTITLE0=Lover Come Back To Me
TTITLE1=Body And Soul
TTITLE2=Split Kick
TTITLE3=It Might As Well Be Spring
TTITLE4=These Foolish Things
TTITLE5=Lullaby of Birdland
TTITLE6=Autumn Leaves
TTITLE7=Slow
TTITLE8=Stan's Mood
TTITLE9=The Best Thing For You
TTITLE10=Thanks For The Memory
TTITLE11=Dear Old Stockholm
TTITLE12=You Turned The Tables On Me
TTITLE13=Time On My Hands
TTITLE14=Moonlight In Vermont
TTITLE15=Thou Swell
TTITLE16=Hymn Of The Orient
TTITLE17=Stars Fell On Alabama
TTITLE18=Wildwood
TTITLE19='Tis Autumn
TTITLE20=There Will Never Be Another You
EXTD=YEAR: 2003
EXTT0=
EXTT1=
EXTT2=
EXTT3=
EXTT4=
EXTT5=
EXTT6=
EXTT7=
EXTT8=
EXTT9=
EXTT10=
EXTT11=
EXTT12=
EXTT13=
EXTT14=
EXTT15=
EXTT16=
EXTT17=
EXTT18=
EXTT19=
EXTT20=
PLAYORDER=
